<?xml version="1.0" encoding="utf-8"?>
<!-- Generator: Adobe Illustrator 18.1.0, SVG Export Plug-In . SVG Version: 6.00 Build 0)  -->
<svg version="1.1" id="Capa_1" xmlns="http://www.w3.org/2000/svg" xmlns:xlink="http://www.w3.org/1999/xlink" x="0px" y="0px"
	 viewBox="0 0 960 560" enable-background="new 0 0 960 560" xml:space="preserve">
<g>
	<g>
		<g>
			<path fill="#FFFFFF" d="M480,560c154.6,0,280-125.4,280-280C760,125.3,634.6,0,480,0C325.3,0,200,125.3,200,280
				C200,434.6,325.3,560,480,560z M392.3,266.7l121.1-121.1c7.3-7.2,19.1-7.2,26.4,0c7.3,7.3,7.3,19.2,0,26.4L431.8,280l107.9,107.9
				c7.3,7.3,7.3,19.1,0,26.4c-7.3,7.3-19.1,7.3-26.4,0L392.3,293.3c-3.7-3.7-5.5-8.5-5.5-13.3C386.8,275.2,388.6,270.4,392.3,266.7z
				"/>
		</g>
	</g>
</g>
</svg>
