<?xml version="1.0" encoding="utf-8"?>
<!-- Generator: Adobe Illustrator 19.2.1, SVG Export Plug-In . SVG Version: 6.00 Build 0)  -->
<svg version="1.1" id="Capa_1" xmlns="http://www.w3.org/2000/svg" xmlns:xlink="http://www.w3.org/1999/xlink" x="0px" y="0px"
	 viewBox="0 0 568 560" style="enable-background:new 0 0 568 560;" xml:space="preserve">
<style type="text/css">
	.st0{fill:#FFFFFF;}
</style>
<g>
	<g>
		<g>
			<path class="st0" d="M284,0C129.4,0,4,125.4,4,280c0,154.7,125.4,280,280,280c154.7,0,280-125.3,280-280C564,125.4,438.7,0,284,0
				z M371.7,293.3l-121,121c-7.3,7.2-19.1,7.2-26.4,0c-7.3-7.3-7.3-19.2,0-26.4L332.2,280L224.3,172.1c-7.3-7.3-7.3-19.1,0-26.4
				s19.1-7.3,26.4,0l121.1,121.1c3.7,3.7,5.5,8.5,5.5,13.3C377.2,284.8,375.4,289.6,371.7,293.3z"/>
		</g>
	</g>
</g>
</svg>
