<?xml version="1.0" encoding="utf-8"?>
<!-- Generator: Adobe Illustrator 17.0.0, SVG Export Plug-In . SVG Version: 6.00 Build 0)  -->
<!DOCTYPE svg PUBLIC "-//W3C//DTD SVG 1.1//EN" "http://www.w3.org/Graphics/SVG/1.1/DTD/svg11.dtd">
<svg version="1.1" id="Layer_1" xmlns="http://www.w3.org/2000/svg" xmlns:xlink="http://www.w3.org/1999/xlink" x="0px" y="0px"
	 width="99.41px" height="64.5px" viewBox="0 0 99.41 64.5" enable-background="new 0 0 99.41 64.5" xml:space="preserve">
<g>
	<path fill="#FFFFFF" d="M44.444,15.148c-3.428-4.003-7.143-7.43-11.433-9.718C28.727,3.141,24.437,2,19.578,2H1l13.151,16.863
		c3.428,4.287,7.146,7.433,11.435,9.72c4.284,2.285,8.571,3.428,13.142,3.428c-4.572,0-8.858,1.144-13.142,3.428
		c-4.287,2.287-8.008,5.718-11.435,9.718L1,62.307h18.578c4.858,0,9.148-1.144,13.432-3.428c4.29-2.287,8.002-5.431,11.433-9.718
		l13.148-17.148L44.444,15.148z"/>
	<path fill="#FFFFFF" d="M39.661,2l13.145,16.863c3.428,4.287,7.146,7.433,11.433,9.72c4.005,2.285,8.574,3.428,12.864,3.428
		c-4.29,0-8.861,1.144-12.864,3.428c-4.287,2.287-8.002,5.718-11.433,9.718L39.661,62.304h18.576c4.574,0,9.143-1.144,13.43-3.428
		c4.287-2.287,8.008-5.431,11.435-9.718l13.148-17.148L83.101,15.148c-3.428-4.002-7.146-7.43-11.435-9.718
		C67.376,3.144,62.81,2,58.236,2H39.661z"/>
</g>
</svg>
