<?xml version="1.0" encoding="utf-8"?>
<!-- Generator: Adobe Illustrator 19.2.1, SVG Export Plug-In . SVG Version: 6.00 Build 0)  -->
<svg version="1.1" id="Capa_1" xmlns="http://www.w3.org/2000/svg" xmlns:xlink="http://www.w3.org/1999/xlink" x="0px" y="0px"
	 viewBox="0 0 568 560" style="enable-background:new 0 0 568 560;" xml:space="preserve">
<style type="text/css">
	.st0{fill:#FFFFFF;}
</style>
<g>
	<g>
		<g>
			<path class="st0" d="M564,280C564,125.4,438.6,0,284,0C129.3,0,4,125.4,4,280c0,154.7,125.3,280,280,280
				C438.6,560,564,434.7,564,280z M270.7,367.7l-121-121c-7.2-7.3-7.2-19.1,0-26.4c7.3-7.3,19.2-7.3,26.4,0L284,328.2l107.9-107.9
				c7.3-7.3,19.1-7.3,26.4,0s7.3,19.1,0,26.4L297.2,367.8c-3.7,3.7-8.5,5.5-13.3,5.5C279.2,373.2,274.4,371.4,270.7,367.7z"/>
		</g>
	</g>
</g>
</svg>
