<?xml version="1.0" encoding="utf-8"?>
<!-- Generator: Adobe Illustrator 17.1.0, SVG Export Plug-In . SVG Version: 6.00 Build 0)  -->
<!DOCTYPE svg PUBLIC "-//W3C//DTD SVG 1.1//EN" "http://www.w3.org/Graphics/SVG/1.1/DTD/svg11.dtd">
<svg version="1.1" id="Layer_1" xmlns="http://www.w3.org/2000/svg" xmlns:xlink="http://www.w3.org/1999/xlink" x="0px" y="0px"
	 viewBox="0 0 540 114" enable-background="new 0 0 540 114" xml:space="preserve">
<path d="M90.1,13.1H75l3.3-12.2h44.1l-3.2,12.2h-15.1L93.8,51.3h-14L90.1,13.1z"/>
<path d="M128,0.9h14L137,19.7h17.8l5-18.9h14l-13.5,50.4h-14l5.2-19.2h-17.8l-5.1,19.2h-14L128,0.9z"/>
<path d="M182.5,0.9h19c4.2,0,7.8,0.5,10.6,1.4c2.8,0.9,5.1,2.2,6.8,3.9c1.3,1.3,2.3,2.9,2.9,4.6s0.9,3.6,0.9,5.7
	c0,4.2-1.2,7.9-3.7,11.1c-2.4,3.1-6.2,5.4-11.4,6.8l7.8,17H200L193.3,36h-6.2L183,51.3h-14L182.5,0.9z M198,25.1
	c3.2,0,5.7-0.6,7.6-1.9c1.9-1.3,2.8-3,2.8-5.1c0-1.3-0.4-2.4-1.3-3.4c-1.2-1.2-3.2-1.7-6.2-1.7h-7.6L190,25.1H198z"/>
<path d="M234.7,0.9h14l-13.5,50.4h-14L234.7,0.9z"/>
<path d="M257.8,0.9h14L261.6,39h24l-3.3,12.2h-38.1L257.8,0.9z"/>
<path d="M302.2,0.9h14L306,39h24l-3.3,12.2h-38.1L302.2,0.9z"/>
<path d="M355.7,52.1c-4.9,0-9.4-0.8-13.4-2.4s-7.3-3.9-10-6.8l9-9.3c4.9,4.6,10.1,6.8,15.6,6.8c1.7,0,3-0.3,4.1-1
	c1.1-0.7,1.6-1.6,1.6-2.7c0-0.5-0.1-0.9-0.3-1.3c-0.2-0.4-0.6-0.8-1.3-1.2c-0.6-0.4-1.5-0.9-2.6-1.4s-2.5-1.1-4.3-1.8
	c-2-0.8-3.8-1.6-5.4-2.4s-3-1.8-4.1-2.9c-1.1-1.1-2-2.3-2.6-3.7c-0.6-1.4-0.9-3-0.9-4.9c0-2.5,0.5-4.8,1.6-6.9
	c1.1-2.1,2.6-3.9,4.5-5.4c1.9-1.5,4.2-2.7,6.8-3.5c2.6-0.8,5.5-1.3,8.5-1.3c4.5,0,8.4,0.7,11.8,2c3.4,1.3,6.4,3.2,8.8,5.5l-8.6,9.6
	c-1.9-1.7-4-3-6.2-4c-2.2-1-4.6-1.5-7.2-1.5c-1.7,0-3,0.3-4,1c-1,0.7-1.5,1.5-1.5,2.6c0,0.5,0.1,1,0.4,1.3c0.2,0.4,0.7,0.7,1.3,1.1
	c0.6,0.4,1.5,0.8,2.6,1.3c1.1,0.5,2.5,1.1,4.2,1.7c1.9,0.7,3.7,1.5,5.3,2.4c1.6,0.9,3,1.8,4.1,2.9c1.2,1.1,2.1,2.3,2.7,3.8
	c0.6,1.4,1,3.1,1,5c0,2.6-0.5,5-1.6,7.1c-1.1,2.1-2.5,4-4.4,5.5c-1.9,1.5-4.2,2.7-6.8,3.6C361.7,51.7,358.8,52.1,355.7,52.1z"/>
<path d="M393.1,0.9h40.4l-3.2,11.9h-26.5l-2.1,7.6h24l-3,11h-24l-2.2,8h26.9l-3.2,11.9h-40.8L393.1,0.9z"/>
<path d="M441.2,0.9h40.4l-3.2,11.9h-26.5l-2.1,7.6h24l-3,11h-24l-2.2,8h26.9l-3.2,11.9h-40.8L441.2,0.9z"/>
<path d="M489.4,0.9h14L498,21l20.8-20.2h17.8L512.8,23L524,51.3h-15.1l-7.3-19.4l-8.7,8l-3,11.4h-14L489.4,0.9z"/>
<g enable-background="new    ">
	<path d="M93.5,62.6c0,0.1-0.2,0.2-0.3,0.3c-1.3,3.1-2.9,5.9-5,8.5c2.7,2.2,6.8,5.9,9.1,8.4l-1.5,1.3c-2.2-2.5-6.2-6.3-8.7-8.3
		c-2.2,2.7-6,6.3-9.5,8.3c-0.3-0.4-0.9-1-1.3-1.3C83.1,76,88.5,69,90.7,63.6H78.6v-1.7h13.1l0.3-0.1L93.5,62.6z"/>
	<path d="M102.1,73.8V61.7l2.4,0.1c0,0.2-0.2,0.4-0.6,0.4v11.5H102.1z M116,60.7c0,0.2-0.2,0.4-0.6,0.4V69c0,5.2-1.8,10-8.9,12.7
		c-0.2-0.4-0.9-1-1.3-1.3c6.9-2.6,8.4-6.8,8.4-11.4v-8.5L116,60.7z"/>
	<path d="M126.6,63.9c0,0.2-0.2,0.4-0.6,0.4c-0.1,6.7-0.7,12.7-4.5,17.2c-0.4-0.3-1-0.7-1.5-0.9c3.7-4,4.1-10.2,4.2-16.9L126.6,63.9
		z M133,78.2c4.1-2,6.8-5.6,8.3-10c0.4,0.3,1.1,0.7,1.5,1c-1.8,5-4.8,8.7-10.1,11.2c-0.1,0.2-0.2,0.4-0.4,0.5l-1.3-1.6l0.3-0.4V60.7
		l2.3,0.1c0,0.2-0.2,0.4-0.5,0.5V78.2z"/>
	<path d="M146,67.2c2.2,0.5,5,1.4,6.7,2.2l-0.7,1.6c-1.6-0.8-4.5-1.8-6.7-2.3L146,67.2z M147.5,79.3c8.1-2.7,13.6-7,16.9-14.4
		c0.4,0.3,1.1,0.8,1.5,1.1c-3.3,7.4-9.1,12-16.7,14.7c0,0.2-0.1,0.5-0.3,0.6L147.5,79.3z M148.7,61c2.2,0.6,5,1.6,6.6,2.4l-0.8,1.5
		c-1.8-0.9-4.3-1.9-6.6-2.5L148.7,61z"/>
	<path d="M169,69.5h20.7v1.8H170c-0.1,0.2-0.5,0.4-0.8,0.5L169,69.5z"/>
	<path d="M211,64.8c-0.1,0.1-0.2,0.2-0.4,0.3c-2.6,8-6.7,13.2-13.5,16.7c-0.3-0.4-0.8-1-1.3-1.4c6.5-3.1,10.5-8.1,12.6-14.7h-8.9
		c-1.4,2.2-3.3,4.4-5.6,6.1c-0.3-0.3-0.9-0.8-1.4-1.1c3.4-2.6,6.2-6.4,7.9-10.8l2.4,0.7c-0.1,0.2-0.4,0.3-0.7,0.3
		c-0.5,1.1-1,2.1-1.6,3.1h8.7l0.3-0.1L211,64.8z"/>
</g>
<polyline fill="#FF00FF" points="0,50.5 38.2,50.5 50.5,3.1 "/>
<polyline fill="#FF00FF" points="65,54.5 27,54.5 14.6,101.8 "/>
</svg>
