<?xml version="1.0" encoding="utf-8"?>
<!-- Generator: Adobe Illustrator 15.0.0, SVG Export Plug-In  -->
<!DOCTYPE svg PUBLIC "-//W3C//DTD SVG 1.1//EN" "http://www.w3.org/Graphics/SVG/1.1/DTD/svg11.dtd" [
	<!ENTITY ns_flows "http://ns.adobe.com/Flows/1.0/">
]>
<svg version="1.1"
	 xmlns="http://www.w3.org/2000/svg" xmlns:xlink="http://www.w3.org/1999/xlink" xmlns:a="http://ns.adobe.com/AdobeSVGViewerExtensions/3.0/"
	 x="0px" y="0px" width="467px" height="95px" viewBox="-1 -2 467 95" overflow="visible" enable-background="new -1 -2 467 95"
	 xml:space="preserve">
<defs>
</defs>
<path fill="#FFFFFF" d="M64.695,19.58C59.59,13.619,54.058,8.515,47.67,5.109C41.29,1.699,34.902,0,27.666,0H0l19.584,25.112
	c5.105,6.384,10.641,11.069,17.029,14.475c6.38,3.402,12.764,5.105,19.571,5.105c-6.808,0-13.191,1.703-19.571,5.105
	c-6.384,3.406-11.925,8.516-17.029,14.471L0,89.807h27.666c7.235,0,13.623-1.703,20.003-5.104
	c6.388-3.406,11.916-8.087,17.025-14.472l19.58-25.536L64.695,19.58z"/>
<path fill="#FFFFFF" d="M57.572,0l19.575,25.112c5.105,6.384,10.641,11.069,17.025,14.475c5.964,3.402,12.768,5.105,19.156,5.105
	c-6.388,0-13.196,1.703-19.156,5.105c-6.384,3.406-11.916,8.516-17.025,14.471L57.572,89.803h27.662
	c6.812,0,13.615-1.703,19.999-5.104c6.384-3.406,11.925-8.087,17.029-14.472l19.58-25.536l-19.58-25.112
	c-5.105-5.96-10.641-11.065-17.029-14.471C98.845,1.703,92.045,0,85.234,0H57.572z"/>
<path fill="#FFFFFF" d="M152.608,0.447h20.137v4.096h-15.179v9.314h14.316v4.096h-14.316v11.815h-4.959L152.608,0.447L152.608,0.447
	z"/>
<path fill="#FFFFFF" d="M175.894,10.709c1.854-1.682,5.131-2.932,9.142-2.932c6.468,0,9.659,3.148,9.659,7.977v14.014h-4.743v-3.493
	c-1.639,2.846-4.873,3.924-7.676,3.924c-4.657,0-7.46-2.803-7.46-6.339c0-5.045,3.924-7.201,10.78-7.201h4.355v-1.121
	c0-2.199-1.38-4.01-5.39-4.01c-2.846,0-6.339,0.905-8.667,3.191V10.709L175.894,10.709z M185.941,19.894
	c-4.83,0-6.209,1.423-6.209,3.407c0,2.07,1.682,3.277,4.183,3.277c2.717,0,6.037-1.509,6.037-5.563v-1.121H185.941z"/>
<path fill="#FFFFFF" d="M205.174,14.59c1.423-4.743,4.441-6.813,7.675-6.813v4.657c-4.398,0-7.675,2.372-7.675,11.513v5.821h-4.744
	V8.208h4.744V14.59z"/>
<path fill="#FFFFFF" d="M221.561,13.34c1.725-3.924,4.527-5.563,7.805-5.563c4.14,0,6.122,2.372,6.641,5.778
	c2.07-4.441,5.261-5.778,8.193-5.778c4.959,0,6.985,3.234,6.985,8.193v13.799h-4.742V16.574c0-2.932-0.992-4.959-4.055-4.959
	c-3.363,0-5.994,3.622-5.994,12.548v5.606h-4.744V16.574c0-2.932-0.992-4.959-4.053-4.959c-3.363,0-6.037,3.622-6.037,12.548v5.606
	h-4.744V8.208h4.744V13.34z"/>
<path fill="#FFFFFF" d="M264.77,29.769c-0.819,0.259-2.199,0.431-2.933,0.431c-3.665,0-5.045-1.725-5.045-5.778V0.447h4.743v23.371
	c0,1.811,0.345,2.674,1.811,2.674c0.346,0,0.949-0.086,1.424-0.259V29.769z"/>
<path fill="#FFFFFF" d="M268.176,10.709c1.854-1.682,5.131-2.932,9.143-2.932c6.468,0,9.658,3.148,9.658,7.977v14.014h-4.742v-3.493
	c-1.64,2.846-4.873,3.924-7.676,3.924c-4.658,0-7.461-2.803-7.461-6.339c0-5.045,3.924-7.201,10.78-7.201h4.354v-1.121
	c0-2.199-1.379-4.01-5.39-4.01c-2.846,0-6.339,0.905-8.667,3.191V10.709z M278.223,19.894c-4.83,0-6.209,1.423-6.209,3.407
	c0,2.07,1.682,3.277,4.184,3.277c2.717,0,6.037-1.509,6.037-5.563v-1.121H278.223z"/>
<path fill="#FFFFFF" d="M297.456,13.34c1.726-3.924,4.526-5.563,7.805-5.563c4.96,0,7.029,3.234,7.029,8.193v13.799h-4.744V16.574
	c0-2.932-0.991-4.959-4.053-4.959c-3.363,0-6.037,3.622-6.037,12.548v5.606h-4.744V8.208h4.744V13.34z"/>
<path fill="#FFFFFF" d="M333.289,26.19c-1.25,2.587-4.01,4.01-7.158,4.01c-5.82,0-9.271-4.269-9.271-11.212
	c0-6.943,3.451-11.211,9.271-11.211c3.148,0,5.908,1.423,7.158,4.01V0.447h4.743v29.322h-4.743V26.19z M327.511,11.399
	c-4.053,0-5.649,3.407-5.649,7.589c0,4.182,1.597,7.589,5.649,7.589c3.234,0,5.778-2.544,5.778-7.589
	C333.289,13.944,330.745,11.399,327.511,11.399z"/>
<path fill="#FFFFFF" d="M348.729,13.34c1.725-3.924,4.526-5.563,7.805-5.563c4.14,0,6.123,2.372,6.641,5.778
	c2.07-4.441,5.26-5.778,8.193-5.778c4.959,0,6.986,3.234,6.986,8.193v13.799h-4.744V16.574c0-2.932-0.991-4.959-4.053-4.959
	c-3.363,0-5.994,3.622-5.994,12.548v5.606h-4.744V16.574c0-2.932-0.992-4.959-4.053-4.959c-3.363,0-6.037,3.622-6.037,12.548v5.606
	h-4.744V8.208h4.744V13.34z"/>
<path fill="#FFFFFF" d="M387.925,19.98c0,4.442,2.675,6.598,6.813,6.598c3.319,0,6.425-0.992,8.538-3.148v3.881
	c-1.554,1.38-4.571,2.889-9.229,2.889c-7.114,0-11.212-4.355-11.212-11.212s4.398-11.211,10.953-11.211
	c7.934,0,10.22,5.218,10.22,10.694c0,0.517-0.043,1.035-0.086,1.509H387.925z M399.396,16.833c-0.087-2.76-0.992-5.433-5.477-5.433
	c-3.536,0-5.691,2.156-5.908,5.433H399.396z"/>
<path fill="#FFFFFF" d="M423.976,26.19c-1.251,2.587-4.01,4.01-7.157,4.01c-5.821,0-9.271-4.269-9.271-11.212
	c0-6.943,3.449-11.211,9.271-11.211c3.147,0,5.907,1.423,7.157,4.01V0.447h4.743v29.322h-4.743V26.19z M418.197,11.399
	c-4.054,0-5.649,3.407-5.649,7.589c0,4.182,1.595,7.589,5.649,7.589c3.233,0,5.777-2.544,5.777-7.589
	C423.976,13.944,421.431,11.399,418.197,11.399z"/>
<path fill="#FFFFFF" d="M434.67,6.053v-4.7h4.743v4.7H434.67z M434.67,29.769V8.208h4.743v21.561H434.67z"/>
<path fill="#FFFFFF" d="M445.019,10.709c1.854-1.682,5.132-2.932,9.143-2.932c6.468,0,9.659,3.148,9.659,7.977v14.014h-4.743v-3.493
	c-1.64,2.846-4.873,3.924-7.676,3.924c-4.657,0-7.46-2.803-7.46-6.339c0-5.045,3.924-7.201,10.78-7.201h4.355v-1.121
	c0-2.199-1.38-4.01-5.39-4.01c-2.847,0-6.34,0.905-8.668,3.191L445.019,10.709L445.019,10.709z M455.066,19.894
	c-4.83,0-6.209,1.423-6.209,3.407c0,2.07,1.682,3.277,4.182,3.277c2.717,0,6.037-1.509,6.037-5.563v-1.121H455.066z"/>
<path fill="#FFFFFF" d="M153.796,41.206l-0.554,1.5h-1.208l2.668-6.896h1.349l2.557,6.896H157.4l-0.544-1.5H153.796z
	 M155.337,36.967l-1.228,3.332h2.446L155.337,36.967z"/>
<path fill="#FFFFFF" d="M160.588,38.87c0.403-0.916,1.057-1.299,1.822-1.299c1.158,0,1.641,0.755,1.641,1.913v3.222h-1.108v-3.08
	c0-0.685-0.232-1.158-0.946-1.158c-0.785,0-1.409,0.845-1.409,2.93v1.309h-1.108v-5.034h1.108V38.87L160.588,38.87z"/>
<path fill="#FFFFFF" d="M168.003,37.169v-1.097h1.108v1.097H168.003z M168.003,42.706v-5.034h1.108v5.034H168.003z"/>
<path fill="#FFFFFF" d="M171.596,38.87c0.403-0.916,1.057-1.299,1.822-1.299c1.158,0,1.641,0.755,1.641,1.913v3.222h-1.108v-3.08
	c0-0.685-0.232-1.158-0.946-1.158c-0.785,0-1.409,0.845-1.409,2.93v1.309h-1.108v-5.034h1.108V38.87L171.596,38.87z"/>
<path fill="#FFFFFF" d="M176.687,37.672v-1.208h1.107v1.208h1.198v0.816h-1.198v2.789c0,0.413,0.081,0.685,0.574,0.685
	c0.211,0,0.403-0.03,0.624-0.111v0.805c-0.302,0.1-0.654,0.151-1.007,0.151c-1.077,0-1.298-0.574-1.298-1.5v-2.819h-0.755v-0.816
	H176.687z"/>
<path fill="#FFFFFF" d="M180.752,40.42c0,1.037,0.624,1.54,1.59,1.54c0.775,0,1.5-0.232,1.993-0.735v0.906
	c-0.362,0.322-1.067,0.674-2.154,0.674c-1.661,0-2.617-1.017-2.617-2.618s1.027-2.618,2.557-2.618c1.853,0,2.386,1.218,2.386,2.497
	c0,0.121-0.01,0.241-0.02,0.352h-3.735V40.42z M183.43,39.686c-0.02-0.644-0.232-1.269-1.279-1.269
	c-0.825,0-1.329,0.504-1.379,1.269H183.43z"/>
<path fill="#FFFFFF" d="M186.709,39.162c0.332-1.108,1.037-1.591,1.792-1.591v1.088c-1.027,0-1.792,0.553-1.792,2.688v1.359h-1.108
	v-5.034h1.108V39.162z"/>
<path fill="#FFFFFF" d="M189.314,38.256c0.433-0.393,1.198-0.685,2.134-0.685c1.51,0,2.255,0.735,2.255,1.863v3.272h-1.107V41.89
	c-0.383,0.665-1.138,0.916-1.792,0.916c-1.087,0-1.742-0.654-1.742-1.48c0-1.178,0.916-1.681,2.517-1.681h1.017v-0.262
	c0-0.513-0.322-0.936-1.258-0.936c-0.665,0-1.48,0.212-2.023,0.745L189.314,38.256L189.314,38.256z M191.66,40.4
	c-1.128,0-1.45,0.332-1.45,0.795c0,0.483,0.393,0.765,0.976,0.765c0.634,0,1.41-0.352,1.41-1.299V40.4H191.66z"/>
<path fill="#FFFFFF" d="M199.167,42.182c-0.302,0.292-0.916,0.624-1.802,0.624c-1.631,0-2.618-1.017-2.618-2.618
	s0.987-2.618,2.618-2.618c0.886,0,1.5,0.332,1.802,0.624v0.956c-0.493-0.503-0.997-0.735-1.661-0.735
	c-0.926,0-1.591,0.624-1.591,1.772s0.665,1.772,1.591,1.772c0.664,0,1.168-0.232,1.661-0.735V42.182z"/>
<path fill="#FFFFFF" d="M200.674,37.672v-1.208h1.107v1.208h1.198v0.816h-1.198v2.789c0,0.413,0.081,0.685,0.574,0.685
	c0.211,0,0.403-0.03,0.624-0.111v0.805c-0.302,0.1-0.654,0.151-1.006,0.151c-1.077,0-1.299-0.574-1.299-1.5v-2.819h-0.755v-0.816
	H200.674z"/>
<path fill="#FFFFFF" d="M203.893,37.169v-1.097h1.108v1.097H203.893z M203.893,42.706v-5.034h1.108v5.034H203.893z"/>
<path fill="#FFFFFF" d="M209.963,37.672h1.208l-2.185,5.114h-0.946l-2.185-5.114h1.208l1.48,3.655L209.963,37.672z"/>
<path fill="#FFFFFF" d="M212.728,40.42c0,1.037,0.624,1.54,1.59,1.54c0.775,0,1.5-0.232,1.993-0.735v0.906
	c-0.362,0.322-1.067,0.674-2.154,0.674c-1.661,0-2.617-1.017-2.617-2.618s1.027-2.618,2.557-2.618c1.853,0,2.386,1.218,2.386,2.497
	c0,0.121-0.01,0.241-0.02,0.352h-3.735V40.42z M215.406,39.686c-0.02-0.644-0.232-1.269-1.279-1.269
	c-0.825,0-1.329,0.504-1.379,1.269H215.406z"/>
<path fill="#FFFFFF" d="M220.123,38.256c0.433-0.393,1.198-0.685,2.134-0.685c1.51,0,2.255,0.735,2.255,1.863v3.272h-1.107V41.89
	c-0.383,0.665-1.138,0.916-1.792,0.916c-1.087,0-1.742-0.654-1.742-1.48c0-1.178,0.916-1.681,2.517-1.681h1.017v-0.262
	c0-0.513-0.322-0.936-1.258-0.936c-0.665,0-1.48,0.212-2.023,0.745L220.123,38.256L220.123,38.256z M222.469,40.4
	c-1.128,0-1.45,0.332-1.45,0.795c0,0.483,0.393,0.765,0.976,0.765c0.634,0,1.41-0.352,1.41-1.299V40.4H222.469z"/>
<path fill="#FFFFFF" d="M230.52,42.504c0,1.601-0.856,2.315-2.486,2.315c-0.785,0-1.611-0.171-2.104-0.433V43.43
	c0.554,0.312,1.44,0.493,1.963,0.493c0.896,0,1.52-0.393,1.52-1.369v-0.886c-0.332,0.604-0.906,0.936-1.641,0.936
	c-1.41,0-2.195-1.027-2.195-2.517c0-1.49,0.785-2.517,2.195-2.517c0.735,0,1.349,0.322,1.641,0.886v-0.785h1.107V42.504
	L230.52,42.504z M226.745,40.088c0,0.896,0.372,1.671,1.319,1.671c0.755,0,1.349-0.523,1.349-1.671s-0.594-1.671-1.349-1.671
	C227.168,38.417,226.745,39.132,226.745,40.088z"/>
<path fill="#FFFFFF" d="M232.802,40.42c0,1.037,0.624,1.54,1.591,1.54c0.774,0,1.5-0.232,1.992-0.735v0.906
	c-0.361,0.322-1.066,0.674-2.154,0.674c-1.661,0-2.617-1.017-2.617-2.618s1.027-2.618,2.557-2.618c1.853,0,2.386,1.218,2.386,2.497
	c0,0.121-0.01,0.241-0.02,0.352h-3.735V40.42z M235.48,39.686c-0.021-0.644-0.232-1.269-1.279-1.269
	c-0.825,0-1.329,0.504-1.379,1.269H235.48z"/>
<path fill="#FFFFFF" d="M238.759,38.87c0.403-0.916,1.058-1.299,1.822-1.299c1.158,0,1.642,0.755,1.642,1.913v3.222h-1.108v-3.08
	c0-0.685-0.232-1.158-0.946-1.158c-0.785,0-1.409,0.845-1.409,2.93v1.309h-1.108v-5.034h1.108V38.87L238.759,38.87z"/>
<path fill="#FFFFFF" d="M247.686,42.182c-0.303,0.292-0.916,0.624-1.803,0.624c-1.631,0-2.617-1.017-2.617-2.618
	s0.986-2.618,2.617-2.618c0.887,0,1.5,0.332,1.803,0.624v0.956c-0.494-0.503-0.998-0.735-1.662-0.735
	c-0.926,0-1.59,0.624-1.59,1.772s0.664,1.772,1.59,1.772c0.664,0,1.168-0.232,1.662-0.735V42.182z"/>
<path fill="#FFFFFF" d="M249.464,44.719l0.957-2.175l-2.094-4.873h1.198l1.479,3.655l1.429-3.655h1.198l-3.021,7.047L249.464,44.719
	L249.464,44.719z"/>
<path fill="#FFFFFF" d="M156.565,49.746l1.138,3.574l1.158-3.574h1.128l-1.691,5.113h-1.138l-1.117-3.412l-1.118,3.412h-1.077
	l-1.702-5.113h1.138l1.148,3.574l1.148-3.574H156.565z"/>
<path fill="#FFFFFF" d="M160.929,49.243v-1.097h1.108v1.097H160.929z M160.929,54.78v-5.034h1.108v5.034H160.929z"/>
<path fill="#FFFFFF" d="M163.757,49.746v-1.208h1.107v1.208h1.198v0.816h-1.198v2.789c0,0.412,0.081,0.685,0.574,0.685
	c0.211,0,0.403-0.03,0.624-0.111v0.806c-0.302,0.1-0.654,0.15-1.006,0.15c-1.077,0-1.299-0.574-1.299-1.5v-2.818h-0.755v-0.816
	H163.757z"/>
<path fill="#FFFFFF" d="M168.084,50.943c0.403-0.916,1.057-1.299,1.822-1.299c1.158,0,1.641,0.756,1.641,1.914v3.222h-1.108V51.7
	c0-0.685-0.232-1.158-0.946-1.158c-0.785,0-1.409,0.845-1.409,2.931v1.309h-1.108v-6.846h1.108V50.943L168.084,50.943z"/>
<path fill="#FFFFFF" d="M175.428,50.33c0.433-0.393,1.198-0.686,2.134-0.686c1.51,0,2.255,0.735,2.255,1.863v3.272h-1.107v-0.816
	c-0.383,0.665-1.138,0.916-1.792,0.916c-1.087,0-1.742-0.653-1.742-1.479c0-1.178,0.916-1.682,2.517-1.682h1.017v-0.262
	c0-0.514-0.322-0.936-1.258-0.936c-0.665,0-1.48,0.211-2.023,0.744L175.428,50.33L175.428,50.33z M177.774,52.475
	c-1.128,0-1.45,0.332-1.45,0.795c0,0.483,0.393,0.766,0.976,0.766c0.634,0,1.41-0.352,1.41-1.299v-0.262H177.774z"/>
<path fill="#FFFFFF" d="M184.042,49.746v-0.413c0-1.077,0.524-1.5,1.47-1.5c0.272,0,0.554,0.03,0.826,0.101v0.836
	c-0.201-0.062-0.393-0.092-0.614-0.092c-0.363,0-0.574,0.131-0.574,0.686v0.383h1.188v0.816h-1.188v4.217h-1.107v-4.217h-0.765
	v-0.816H184.042z"/>
<path fill="#FFFFFF" d="M191.933,52.264c0,1.42-0.876,2.617-2.567,2.617c-1.691,0-2.557-1.197-2.557-2.617
	c0-1.421,0.866-2.619,2.557-2.619C191.057,49.645,191.933,50.844,191.933,52.264z M190.765,52.264c0-0.856-0.373-1.772-1.4-1.772
	c-1.017,0-1.389,0.916-1.389,1.772c0,0.865,0.373,1.771,1.389,1.771C190.392,54.035,190.765,53.129,190.765,52.264z"/>
<path fill="#FFFFFF" d="M197.154,54.256c-0.302,0.292-0.916,0.624-1.802,0.624c-1.631,0-2.617-1.017-2.617-2.618
	c0-1.601,0.986-2.617,2.617-2.617c0.886,0,1.5,0.332,1.802,0.623v0.957c-0.493-0.504-0.997-0.735-1.661-0.735
	c-0.926,0-1.591,0.624-1.591,1.771c0,1.148,0.665,1.772,1.591,1.772c0.664,0,1.168-0.232,1.661-0.735V54.256z"/>
<path fill="#FFFFFF" d="M201.732,53.582c-0.403,0.916-1.067,1.299-1.822,1.299c-1.168,0-1.641-0.755-1.641-1.913v-3.222h1.108v3.081
	c0,0.684,0.231,1.157,0.946,1.157c0.785,0,1.41-0.846,1.41-2.93v-1.309h1.107v5.034h-1.107L201.732,53.582L201.732,53.582z"/>
<path fill="#FFFFFF" d="M203.923,53.391c0.604,0.424,1.329,0.614,1.993,0.614c0.644,0,1.057-0.151,1.057-0.634
	c0-0.916-3-0.352-3-2.266c0-1.006,0.876-1.459,1.983-1.459c0.624,0,1.379,0.101,2.034,0.554v0.936
	c-0.604-0.423-1.278-0.614-1.943-0.614c-0.574,0-0.936,0.111-0.936,0.545c0,0.916,3.03,0.343,3.03,2.234
	c0,1.057-0.836,1.581-2.134,1.581c-0.624,0-1.43-0.101-2.084-0.554V53.391z"/>
<path fill="#FFFFFF" d="M216.684,52.264c0,1.42-0.876,2.617-2.567,2.617c-1.691,0-2.557-1.197-2.557-2.617
	c0-1.421,0.866-2.619,2.557-2.619C215.809,49.645,216.684,50.844,216.684,52.264z M215.517,52.264c0-0.856-0.373-1.772-1.4-1.772
	c-1.017,0-1.389,0.916-1.389,1.772c0,0.865,0.373,1.771,1.389,1.771C215.144,54.035,215.517,53.129,215.517,52.264z"/>
<path fill="#FFFFFF" d="M218.886,50.943c0.403-0.916,1.057-1.299,1.822-1.299c1.158,0,1.641,0.756,1.641,1.914v3.222h-1.108V51.7
	c0-0.685-0.232-1.158-0.946-1.158c-0.785,0-1.409,0.845-1.409,2.931v1.309h-1.108v-5.034h1.108V50.943L218.886,50.943z"/>
<path fill="#FFFFFF" d="M156.162,66.02c-0.292,0.604-0.936,0.936-1.671,0.936c-1.359,0-2.165-0.997-2.165-2.618
	s0.805-2.618,2.165-2.618c0.735,0,1.379,0.332,1.671,0.936v-2.646h1.107v6.846h-1.107V66.02z M154.813,62.566
	c-0.946,0-1.319,0.795-1.319,1.771s0.372,1.771,1.319,1.771c0.755,0,1.349-0.594,1.349-1.771S155.568,62.566,154.813,62.566z"/>
<path fill="#FFFFFF" d="M158.655,61.316V60.22h1.108v1.097H158.655z M158.655,66.854V61.82h1.108v5.033H158.655z"/>
<path fill="#FFFFFF" d="M165.812,66.652c0,1.602-0.856,2.315-2.486,2.315c-0.785,0-1.611-0.171-2.104-0.433v-0.957
	c0.554,0.312,1.44,0.492,1.963,0.492c0.896,0,1.52-0.393,1.52-1.368v-0.886c-0.332,0.604-0.906,0.936-1.641,0.936
	c-1.41,0-2.195-1.027-2.195-2.518c0-1.489,0.785-2.517,2.195-2.517c0.735,0,1.349,0.322,1.641,0.886v-0.785h1.107V66.652
	L165.812,66.652z M162.037,64.236c0,0.896,0.372,1.672,1.319,1.672c0.755,0,1.349-0.523,1.349-1.672c0-1.147-0.594-1.67-1.349-1.67
	C162.46,62.566,162.037,63.281,162.037,64.236z"/>
<path fill="#FFFFFF" d="M167.198,61.316V60.22h1.108v1.097H167.198z M167.198,66.854V61.82h1.108v5.033H167.198z"/>
<path fill="#FFFFFF" d="M170.026,61.82v-1.207h1.107v1.207h1.198v0.816h-1.198v2.789c0,0.413,0.081,0.686,0.574,0.686
	c0.211,0,0.403-0.03,0.624-0.111v0.805c-0.302,0.101-0.654,0.151-1.006,0.151c-1.077,0-1.299-0.574-1.299-1.5v-2.819h-0.755V61.82
	H170.026z"/>
<path fill="#FFFFFF" d="M173.175,62.405c0.433-0.394,1.198-0.686,2.134-0.686c1.51,0,2.255,0.735,2.255,1.863v3.272h-1.107v-0.816
	c-0.383,0.665-1.138,0.916-1.792,0.916c-1.087,0-1.742-0.654-1.742-1.48c0-1.178,0.916-1.681,2.517-1.681h1.017v-0.262
	c0-0.513-0.322-0.937-1.258-0.937c-0.665,0-1.48,0.213-2.023,0.745L173.175,62.405L173.175,62.405z M175.52,64.549
	c-1.128,0-1.45,0.332-1.45,0.795c0,0.483,0.393,0.766,0.976,0.766c0.634,0,1.41-0.353,1.41-1.299v-0.262H175.52z"/>
<path fill="#FFFFFF" d="M180.732,66.854c-0.192,0.061-0.514,0.102-0.685,0.102c-0.856,0-1.178-0.403-1.178-1.35v-5.597h1.108v5.456
	c0,0.424,0.081,0.624,0.423,0.624c0.08,0,0.221-0.021,0.332-0.06V66.854L180.732,66.854z"/>
<path fill="#FFFFFF" d="M185.239,63.02c0.403-0.916,1.057-1.3,1.822-1.3c0.966,0,1.429,0.554,1.55,1.349
	c0.483-1.036,1.228-1.349,1.913-1.349c1.158,0,1.631,0.755,1.631,1.913v3.223h-1.107v-3.08c0-0.686-0.232-1.158-0.946-1.158
	c-0.785,0-1.399,0.845-1.399,2.93v1.309h-1.108v-3.08c0-0.685-0.232-1.157-0.946-1.157c-0.785,0-1.409,0.845-1.409,2.93v1.31h-1.108
	v-5.034h1.108v1.196H185.239z"/>
<path fill="#FFFFFF" d="M194.386,64.568c0,1.037,0.624,1.541,1.59,1.541c0.775,0,1.5-0.232,1.993-0.735v0.906
	c-0.362,0.321-1.067,0.674-2.154,0.674c-1.661,0-2.618-1.017-2.618-2.618s1.027-2.618,2.557-2.618c1.853,0,2.386,1.218,2.386,2.497
	c0,0.121-0.01,0.241-0.02,0.352h-3.734V64.568z M197.063,63.834c-0.02-0.645-0.231-1.27-1.278-1.27c-0.825,0-1.329,0.504-1.379,1.27
	H197.063z"/>
<path fill="#FFFFFF" d="M202.799,66.02c-0.292,0.604-0.936,0.936-1.671,0.936c-1.359,0-2.165-0.997-2.165-2.618
	s0.805-2.618,2.165-2.618c0.735,0,1.379,0.332,1.671,0.936v-2.646h1.107v6.846h-1.107V66.02z M201.45,62.566
	c-0.946,0-1.319,0.795-1.319,1.771s0.372,1.771,1.319,1.771c0.755,0,1.349-0.594,1.349-1.771S202.205,62.566,201.45,62.566z"/>
<path fill="#FFFFFF" d="M205.292,61.316V60.22h1.108v1.097H205.292z M205.292,66.854V61.82h1.108v5.033H205.292z"/>
<path fill="#FFFFFF" d="M207.707,62.405c0.433-0.394,1.198-0.686,2.134-0.686c1.51,0,2.255,0.735,2.255,1.863v3.272h-1.107v-0.816
	c-0.383,0.665-1.138,0.916-1.792,0.916c-1.087,0-1.742-0.654-1.742-1.48c0-1.178,0.916-1.681,2.517-1.681h1.017v-0.262
	c0-0.513-0.322-0.937-1.258-0.937c-0.665,0-1.48,0.213-2.023,0.745L207.707,62.405L207.707,62.405z M210.053,64.549
	c-1.128,0-1.45,0.332-1.45,0.795c0,0.483,0.393,0.766,0.977,0.766c0.634,0,1.409-0.353,1.409-1.299v-0.262H210.053z"/>
</svg>
