<?xml version="1.0" encoding="utf-8"?>
<!-- Generator: Adobe Illustrator 17.1.0, SVG Export Plug-In . SVG Version: 6.00 Build 0)  -->
<!DOCTYPE svg PUBLIC "-//W3C//DTD SVG 1.1//EN" "http://www.w3.org/Graphics/SVG/1.1/DTD/svg11.dtd">
<svg version="1.1" xmlns="http://www.w3.org/2000/svg" xmlns:xlink="http://www.w3.org/1999/xlink" x="0px" y="0px"
	 viewBox="0 0 125.7 57" enable-background="new 0 0 125.7 57" xml:space="preserve">
<g id="Layer_2">
</g>
<g id="Layer_1">
	<g>
		<path d="M9.6,37.7c1.7,1.6,3.5,2.8,5.5,3.7c2,0.9,4.1,1.4,6.4,1.4c2.1,0,3.6-0.4,4.5-1.2c0.9-0.8,1.4-1.7,1.4-2.8
			c0-0.6-0.1-1.2-0.3-1.7c-0.2-0.5-0.5-1-1-1.5c-0.5-0.5-1.2-1-2.2-1.5c-1-0.5-2.2-1.1-3.7-1.7c-3.7-1.5-6.6-3.3-8.6-5.5
			c-2-2.2-3-4.9-3-8.1c0-2.3,0.5-4.4,1.4-6.3c0.9-1.9,2.2-3.6,3.9-4.9c1.7-1.4,3.7-2.4,6.1-3.2c2.4-0.8,5-1.2,8-1.2
			c3.5,0,6.7,0.6,9.8,1.8c3,1.2,5.6,3,7.5,5.3l-7.7,7.3c-1.5-1.7-3.1-2.8-4.8-3.4c-1.7-0.6-3.2-0.9-4.6-0.9c-2,0-3.5,0.4-4.6,1.1
			c-1.1,0.7-1.7,1.7-1.7,2.9c0,0.6,0.1,1.1,0.3,1.5c0.2,0.5,0.6,0.9,1.2,1.4c0.6,0.5,1.4,1,2.4,1.5c1,0.5,2.4,1.1,4.1,1.8
			c4.3,1.7,7.3,3.8,9,6.1c1.8,2.3,2.6,5,2.6,7.9c0,2.6-0.5,5-1.5,7c-1,2-2.4,3.7-4.1,5C34,51,31.9,52,29.5,52.7c-2.4,0.7-5,1-7.8,1
			c-3.8,0-7.5-0.6-11-1.8c-3.5-1.2-6.5-3-8.9-5.4L9.6,37.7z"/>
		<path d="M50.7,4.6h32.1l-2.2,11H60.8L59,25.1h15.4l-2,10.4H57l-3.3,17.1H41.4L50.7,4.6z"/>
		<path d="M75.5,52.6l9.3-48h17.4c3,0,5.9,0.5,8.5,1.4c2.6,0.9,4.9,2.2,6.9,3.9c1.9,1.7,3.5,3.7,4.6,6.2c1.1,2.4,1.7,5.2,1.7,8.2
			c0,4.1-0.7,7.9-2,11.4c-1.3,3.5-3.2,6.5-5.7,9c-2.4,2.5-5.4,4.5-8.9,5.9c-3.5,1.4-7.4,2.1-11.8,2.1H75.5z M94.9,15.6l-5,25.9h7.2
			c2.2,0,4.2-0.4,5.9-1.3c1.7-0.8,3.2-2,4.4-3.4c1.2-1.4,2.1-3.1,2.8-5c0.6-1.9,1-4,1-6.1c0-3.2-0.9-5.6-2.6-7.4
			c-1.7-1.8-4.2-2.7-7.5-2.7H94.9z"/>
	</g>
</g>
</svg>
